HIERARCHY
ROOT ui
{
	 OFFSET 0 0 0
	 CHANNELS 3 XPosition YPosition Z Position
	 EndSite
	 {
	 OFFSET 0 -1 0
	 }
}
ROOT li
{
	 OFFSET 0 0 0
	 CHANNELS 3 XPosition YPosition Z Position
	 EndSite
	 {
	 OFFSET 0 -1 0
	 }
}
ROOT ul
{
	 OFFSET 0 0 0
	 CHANNELS 3 XPosition YPosition Z Position
	 EndSite
	 {
	 OFFSET 0 -1 0
	 }
}
ROOT ll
{
	 OFFSET 0 0 0
	 CHANNELS 3 XPosition YPosition Z Position
	 EndSite
	 {
	 OFFSET 0 -1 0
	 }
}
ROOT tt
{
	 OFFSET 0 0 0
	 CHANNELS 3 XPosition YPosition Z Position
	 EndSite
	 {
	 OFFSET 0 -1 0
	 }
}
ROOT tb
{
	 OFFSET 0 0 0
	 CHANNELS 3 XPosition YPosition Z Position
	 EndSite
	 {
	 OFFSET 0 -1 0
	 }
}
ROOT td
{
	 OFFSET 0 0 0
	 CHANNELS 3 XPosition YPosition Z Position
	 EndSite
	 {
	 OFFSET 0 -1 0
	 }
}
ROOT v
{
	 OFFSET 0 0 0
	 CHANNELS 3 XPosition YPosition Z Position
	 EndSite
	 {
	 OFFSET 0 -1 0
	 }
}
ROOT bn
{
	 OFFSET 0 0 0
	 CHANNELS 3 XPosition YPosition Z Position
	 EndSite
	 {
	 OFFSET 0 -1 0
	 }
}
MOTION
Frames: 21
Frame Time: 0.002
-0.05304899215698242	-3.916699886322021E-4	0		0.6669620971679687	-2.790471923828125	0		-1.0854849853515625	-0.025311864852905274	0		-0.4453897705078125	-2.955315185546875	0		2.37046337890625	-1.6656025390625	0		3.52123876953125	-0.5901987915039062	0		4.84588134765625	-0.11222205352783203	0		5.88117578125	0.34071243286132813	0		-0.25942526245117187	5.91197314453125	0		
0.024460521697998047	-0.0036527628898620607	0		0.6613764038085937	-2.796611572265625	0		-1.0940498046875	-0.03337999725341797	0		-0.4947694091796875	-2.9458359375	0		2.352171630859375	-1.6515960693359375	0		3.51588232421875	-0.5823892211914062	0		4.83543798828125	-0.11136651611328124	0		5.880849609375	0.34019451904296877	0		-0.22671347045898438	5.91632958984375	0		
-0.07177584838867188	0.0094400634765625	0		0.6609118041992188	-2.79684326171875	0		-1.09850048828125	-0.036521965026855466	0		-0.4612947998046875	-2.950509521484375	0		2.3517294921875	-1.651861083984375	0		3.5293095703125	-0.5938675537109375	0		4.83990283203125	-0.12074798583984375	0		5.88349755859375	0.35508868408203126	0		-0.2752204895019531	5.9007734375	0		
0.019657325744628907	-0.007054739952087402	0		0.6703602905273438	-2.807231201171875	0		-1.090759033203125	-0.029845895767211913	0		-0.4807373352050781	-2.9524765625	0		2.3513408203125	-1.6521495361328125	0		3.529327392578125	-0.5661842651367187	0		4.8367255859375	-0.1080505828857422	0		5.8858525390625	0.31111520385742186	0		-0.29437518310546873	5.9058017578125	0		
0.023415924072265625	-0.0043643760681152345	0		0.66523291015625	-2.79143359375	0		-1.091041748046875	-0.03007449722290039	0		-0.47803353881835936	-2.9487607421875	0		2.362115478515625	-1.64560986328125	0		3.529881103515625	-0.5775331420898437	0		4.8495087890625	-0.10359611511230468	0		5.885650390625	0.3104373474121094	0		-0.29550579833984375	5.906568359375	0		
0.008427392959594727	0.010572027206420899	0		0.6649686889648437	-2.7917177734375	0		-1.0971693115234376	-0.025233631134033204	0		-0.47424700927734376	-2.945072265625	0		2.367878662109375	-1.6460179443359375	0		3.5408349609375	-0.56603955078125	0		4.84931005859375	-0.10398241424560548	0		5.89335400390625	0.30946240234375	0		-0.2766280517578125	5.901046875	0		
0.023121519088745116	-0.0049120931625366215	0		0.6617460327148438	-2.795971435546875	0		-1.1112943115234375	-0.027292016983032227	0		-0.44149069213867187	-2.950793212890625	0		2.392764404296875	-1.6447003173828125	0		3.566747802734375	-0.5647649536132813	0		4.85920849609375	-0.10451996612548828	0		5.90060107421875	0.341352783203125	0		-0.2624149169921875	5.9125810546875	0		
0.014157238006591797	-0.0030758540630340574	0		0.6616839599609375	-2.79627490234375	0		-1.1112874755859374	-0.02755156707763672	0		-0.48838656616210935	-2.938422119140625	0		2.385855712890625	-1.635951171875	0		3.527979248046875	-0.5476043090820313	0		4.85329638671875	-0.09884564971923829	0		5.892759765625	0.34086334228515625	0		-0.2622606506347656	5.91230078125	0		
0.02324493598937988	-0.0054932208061218265	0		0.6627603759765625	-2.79459765625	0		-1.087160400390625	-0.027149396896362303	0		-0.4842862243652344	-2.9347587890625	0		2.3859326171875	-1.636301513671875	0		3.55873388671875	-0.573408203125	0		4.85829931640625	-0.10732379150390625	0		5.89718994140625	0.3520750427246094	0		-0.28094476318359374	5.9162763671875	0		
0.023468559265136718	-0.005788680076599121	0		0.6607545166015625	-2.80687890625	0		-1.0828961181640624	-0.024475208282470705	0		-0.4661587829589844	-2.937291748046875	0		2.3932568359375	-1.6267486572265626	0		3.57931640625	-0.5470636596679688	0		4.86568603515625	-0.0958274917602539	0		5.9010126953125	0.3685095520019531	0		-0.2455341796875	5.9195029296875	0		
0.012043875694274902	0.01208298683166504	0		0.6931975708007813	-2.794630126953125	0		-1.09443212890625	-0.014579584121704101	0		-0.48862997436523437	-2.91825732421875	0		2.393547607421875	-1.62709130859375	0		3.557687255859375	-0.5431265869140625	0		4.86214794921875	-0.0861674575805664	0		5.89757861328125	0.35060986328125	0		-0.2621807861328125	5.91245166015625	0		
-0.06856019592285156	0.010921968460083007	0		0.6655774536132812	-2.7935400390625	0		-1.0940167236328124	-0.014844560623168945	0		-0.45535543823242186	-2.9249912109375	0		2.42199951171875	-1.622810791015625	0		3.561161865234375	-0.5385208129882812	0		4.871533203125	-0.08866873168945312	0		5.89787451171875	0.34992379760742187	0		-0.2285742950439453	5.91771240234375	0		
0.024706090927124023	-0.006643139839172364	0		0.7159133911132812	-2.802520263671875	0		-1.09351953125	-0.0151019229888916	0		-0.48984661865234375	-2.92077294921875	0		2.399667236328125	-1.60880712890625	0		3.583593017578125	-0.5431593627929687	0		4.872029296875	-0.08902324676513672	0		5.898912109375	0.3440670471191406	0		-0.26204666137695315	5.9129140625	0		
-0.07054270935058594	0.006427999019622803	0		0.6665658569335937	-2.79409814453125	0		-1.0929447021484375	-0.015349780082702637	0		-0.486256591796875	-2.9170712890625	0		2.42507861328125	-1.6194500732421875	0		3.573384033203125	-0.5273203735351563	0		4.879783203125	-0.07645221710205079	0		5.8951416015625	0.36091290283203126	0		-0.29447015380859376	5.90711474609375	0		
0.01114570426940918	0.008051027297973632	0		0.6692161254882812	-2.792383544921875	0		-1.0672789306640624	-0.014935175895690917	0		-0.4795663146972656	-2.9123994140625	0		2.428020751953125	-1.59775732421875	0		3.591947265625	-0.5338607177734375	0		4.88452001953125	-0.07081366729736328	0		5.89560791015625	0.36036431884765624	0		-0.2805965881347656	5.91768603515625	0		
0.026675952911376952	-0.007392519950866699	0		0.66993212890625	-2.792625244140625	0		-1.0793978271484375	-0.004981509208679199	0		-0.44286883544921873	-2.914132568359375	0		2.44892626953125	-1.5852945556640625	0		3.592919921875	-0.5171300048828125	0		4.8942451171875	-0.07221800231933594	0		5.91182568359375	0.3593353271484375	0		-0.25987533569335936	5.91217431640625	0		
0.012721236228942872	0.007592432975769043	0		0.7196337280273437	-2.8015341796875	0		-1.0785631103515625	-0.005197482109069824	0		-0.4977256774902344	-2.890573974609375	0		2.44975146484375	-1.5855318603515625	0		3.61670751953125	-0.520694580078125	0		4.8991767578125	-0.06552659606933593	0		5.89673095703125	0.35941851806640623	0		-0.22492439270019532	5.91747900390625	0		
0.013655046463012695	0.007382455825805664	0		0.6696473999023438	-2.795035888671875	0		-1.0776292724609375	-0.005404057025909424	0		-0.4288911743164063	-2.89772998046875	0		2.48563525390625	-1.5892371826171876	0		3.605864013671875	-0.5047500305175782	0		4.9149833984375	-0.07496006774902343	0		5.89739697265625	0.3590233154296875	0		-0.2590245361328125	5.91375830078125	0		
0.02543634223937988	-0.010968016624450684	0		0.6825814819335938	-2.8024013671875	0		-1.135659912109375	-0.00977964973449707	0		-0.4906849060058594	-2.885051513671875	0		2.4588662109375	-1.5750474853515626	0		3.613631591796875	-0.5240452880859375	0		4.91010107421875	-0.06907669830322266	0		5.91032763671875	0.3703763122558594	0		-0.25701815795898436	5.9115458984375	0		
0.02873231887817383	8.133620023727417E-4	0		0.6789413452148437	-2.78652099609375	0		-1.046400146484375	-0.0011999750137329103	0		-0.4464688720703125	-2.879842529296875	0		2.49699560546875	-1.575746337890625	0		3.6442470703125	-0.4896329345703125	0		4.92840966796875	-0.05649148178100586	0		5.916708984375	0.34739495849609375	0		-0.27484747314453123	5.91561962890625	0		
0.01703207206726074	0.006812067031860352	0		0.6801712036132812	-2.786699462890625	0		-1.1330234375	0.010837527275085449	0		-0.4988849182128906	-2.85427685546875	0		2.484457275390625	-1.558721435546875	0		3.626577880859375	-0.4815313720703125	0		4.929625	-0.056646995544433594	0		5.90713671875	0.39247271728515626	0		-0.22261358642578125	5.91872509765625	0		
